<?xml version="1.0" encoding="UTF-8" standalone="no"?>
<!DOCTYPE svg PUBLIC "-//W3C//DTD SVG 1.1//EN" "http://www.w3.org/Graphics/SVG/1.1/DTD/svg11.dtd">
<svg width="100%" height="100%" viewBox="0 0 3921 1100" version="1.1" xmlns="http://www.w3.org/2000/svg" xmlns:xlink="http://www.w3.org/1999/xlink" xml:space="preserve" xmlns:serif="http://www.serif.com/" style="fill-rule:evenodd;clip-rule:evenodd;stroke-linejoin:round;stroke-miterlimit:2;">
    <g transform="matrix(0.762304,0,-0.252224,0.786729,976.871,-913.355)">
        <g transform="matrix(1300.35,0,0,1300.35,472.478,2520.14)">
            <path d="M0.149,-0L0.369,-0L0.481,-0.176L0.495,-0.176L0.607,-0L0.828,-0L0.972,-0.7L0.732,-0.7L0.656,-0.274L0.642,-0.274L0.495,-0.515L0.481,-0.515L0.334,-0.274L0.32,-0.274L0.244,-0.7L0.005,-0.7L0.149,-0Z" style="fill:rgb(234,219,194);fill-rule:nonzero;"/>
        </g>
        <g transform="matrix(1300.35,0,0,1300.35,1729.91,2520.14)">
            <path d="M0.048,-0L0.269,-0L0.269,-0.565L0.048,-0.565L0.048,-0ZM0.048,-0.624L0.269,-0.624L0.269,-0.685L0.048,-0.685L0.048,-0.624Z" style="fill:rgb(234,219,194);fill-rule:nonzero;"/>
        </g>
        <g transform="matrix(1300.35,0,0,1300.35,2142.12,2520.14)">
            <path d="M0.048,-0L0.26,-0L0.26,-0.275L0.402,-0L0.654,-0L0.475,-0.302L0.643,-0.565L0.392,-0.565L0.26,-0.327L0.26,-0.7L0.048,-0.7L0.048,-0Z" style="fill:rgb(234,219,194);fill-rule:nonzero;"/>
        </g>
        <g transform="matrix(1300.35,0,0,1300.35,2982.15,2520.14)">
            <path d="M0.048,-0L0.269,-0L0.269,-0.565L0.048,-0.565L0.048,-0ZM0.048,-0.624L0.269,-0.624L0.269,-0.685L0.048,-0.685L0.048,-0.624Z" style="fill:rgb(234,219,194);fill-rule:nonzero;"/>
        </g>
    </g>
    <g transform="matrix(3.052,0,0,3.052,-10872.3,-1790.73)">
        <g transform="matrix(125.117,0,0,129.126,3826.31,679.223)">
            <path d="M0.391,0.015C0.598,0.015 0.755,-0.129 0.755,-0.362L0.351,-0.362L0.351,-0.285L0.507,-0.285C0.495,-0.226 0.45,-0.201 0.392,-0.201C0.313,-0.201 0.253,-0.245 0.253,-0.35C0.253,-0.445 0.309,-0.499 0.392,-0.499C0.444,-0.499 0.481,-0.474 0.504,-0.44L0.748,-0.44C0.711,-0.613 0.572,-0.715 0.391,-0.715C0.179,-0.715 0.025,-0.572 0.025,-0.351C0.025,-0.128 0.179,0.015 0.391,0.015Z" style="fill:rgb(235,219,194);fill-rule:nonzero;"/>
        </g>
        <g transform="matrix(125.117,0,0,129.126,3923.9,679.223)">
            <path d="M0.323,0.015C0.497,0.015 0.623,-0.109 0.623,-0.283C0.623,-0.462 0.497,-0.58 0.323,-0.58C0.148,-0.58 0.022,-0.462 0.022,-0.283C0.022,-0.109 0.128,0.015 0.323,0.015ZM0.323,-0.181C0.268,-0.181 0.225,-0.216 0.225,-0.283C0.225,-0.348 0.267,-0.384 0.323,-0.384C0.377,-0.384 0.42,-0.349 0.42,-0.283C0.42,-0.216 0.377,-0.181 0.323,-0.181Z" style="fill:rgb(235,219,194);fill-rule:nonzero;"/>
        </g>
        <g transform="matrix(125.117,0,0,129.126,4005.9,679.223)">
            <path d="M0.323,0.015C0.497,0.015 0.623,-0.109 0.623,-0.283C0.623,-0.462 0.497,-0.58 0.323,-0.58C0.148,-0.58 0.022,-0.462 0.022,-0.283C0.022,-0.109 0.128,0.015 0.323,0.015ZM0.323,-0.181C0.268,-0.181 0.225,-0.216 0.225,-0.283C0.225,-0.348 0.267,-0.384 0.323,-0.384C0.377,-0.384 0.42,-0.349 0.42,-0.283C0.42,-0.216 0.377,-0.181 0.323,-0.181Z" style="fill:rgb(235,219,194);fill-rule:nonzero;"/>
        </g>
        <g transform="matrix(125.117,0,0,129.126,4087.89,679.223)">
            <path d="M0.398,-0.7C0.386,-0.703 0.343,-0.71 0.297,-0.71C0.153,-0.71 0.066,-0.656 0.066,-0.507L0.066,-0.44L0.01,-0.44L0.01,-0.295L0.066,-0.295L0.066,-0L0.287,-0L0.287,-0.295L0.399,-0.295L0.399,-0.44L0.287,-0.44L0.287,-0.461C0.287,-0.507 0.304,-0.521 0.351,-0.521C0.381,-0.521 0.395,-0.52 0.398,-0.519L0.398,-0.7Z" style="fill:rgb(235,219,194);fill-rule:nonzero;"/>
        </g>
        <g transform="matrix(125.117,0,0,129.126,4140.56,679.223)">
            <path d="M0.002,-0.565L0.232,-0.038L0.14,0.18L0.36,0.18L0.666,-0.565L0.446,-0.565L0.344,-0.26L0.335,-0.26L0.235,-0.565L0.002,-0.565Z" style="fill:rgb(235,219,194);fill-rule:nonzero;"/>
        </g>
        <g transform="matrix(125.117,0,0,129.126,4256.67,679.223)">
            <path d="M0.257,0.015C0.449,0.015 0.54,-0.096 0.54,-0.275L0.54,-0.7L0.31,-0.7L0.31,-0.29C0.31,-0.232 0.284,-0.199 0.235,-0.199C0.19,-0.199 0.151,-0.226 0.128,-0.252L0.005,-0.087C0.043,-0.041 0.127,0.015 0.257,0.015Z" style="fill:rgb(235,219,194);fill-rule:nonzero;"/>
        </g>
        <g transform="matrix(125.117,0,0,129.126,4329.84,679.223)">
            <path d="M0.022,-0.282C0.022,-0.108 0.125,0.015 0.272,0.015C0.348,0.015 0.407,-0.018 0.432,-0.08L0.439,-0.08L0.439,-0L0.659,-0L0.659,-0.565L0.439,-0.565L0.439,-0.485L0.432,-0.485C0.407,-0.546 0.348,-0.58 0.272,-0.58C0.134,-0.58 0.022,-0.463 0.022,-0.282ZM0.343,-0.181C0.288,-0.181 0.245,-0.216 0.245,-0.283C0.245,-0.348 0.287,-0.384 0.343,-0.384C0.397,-0.384 0.44,-0.349 0.44,-0.283C0.44,-0.216 0.397,-0.181 0.343,-0.181Z" style="fill:rgb(235,219,194);fill-rule:nonzero;"/>
        </g>
        <g transform="matrix(125.117,0,0,129.126,4418.3,679.223)">
            <path d="M0.002,-0.565L0.172,-0L0.482,-0L0.652,-0.565L0.418,-0.565L0.333,-0.201L0.323,-0.201L0.238,-0.565L0.002,-0.565Z" style="fill:rgb(235,219,194);fill-rule:nonzero;"/>
        </g>
        <g transform="matrix(125.117,0,0,129.126,4497.55,679.223)">
            <path d="M0.022,-0.282C0.022,-0.108 0.125,0.015 0.272,0.015C0.348,0.015 0.407,-0.018 0.432,-0.08L0.439,-0.08L0.439,-0L0.659,-0L0.659,-0.565L0.439,-0.565L0.439,-0.485L0.432,-0.485C0.407,-0.546 0.348,-0.58 0.272,-0.58C0.134,-0.58 0.022,-0.463 0.022,-0.282ZM0.343,-0.181C0.288,-0.181 0.245,-0.216 0.245,-0.283C0.245,-0.348 0.287,-0.384 0.343,-0.384C0.397,-0.384 0.44,-0.349 0.44,-0.283C0.44,-0.216 0.397,-0.181 0.343,-0.181Z" style="fill:rgb(235,219,194);fill-rule:nonzero;"/>
        </g>
    </g>
</svg>
