<?xml version="1.0" encoding="UTF-8" standalone="no"?>
<!DOCTYPE svg PUBLIC "-//W3C//DTD SVG 1.1//EN" "http://www.w3.org/Graphics/SVG/1.1/DTD/svg11.dtd">
<svg width="100%" height="100%" viewBox="0 0 3921 1100" version="1.1" xmlns="http://www.w3.org/2000/svg" xmlns:xlink="http://www.w3.org/1999/xlink" xml:space="preserve" xmlns:serif="http://www.serif.com/" style="fill-rule:evenodd;clip-rule:evenodd;stroke-linejoin:round;stroke-miterlimit:2;">
    <g transform="matrix(0.762304,0,-0.252224,0.786729,976.871,-913.355)">
        <g transform="matrix(1300.35,0,0,1300.35,472.478,2520.14)">
            <path d="M0.149,-0L0.369,-0L0.481,-0.176L0.495,-0.176L0.607,-0L0.828,-0L0.972,-0.7L0.732,-0.7L0.656,-0.274L0.642,-0.274L0.495,-0.515L0.481,-0.515L0.334,-0.274L0.32,-0.274L0.244,-0.7L0.005,-0.7L0.149,-0Z" style="fill:rgb(234,219,194);fill-rule:nonzero;"/>
        </g>
        <g transform="matrix(1300.35,0,0,1300.35,1729.91,2520.14)">
            <path d="M0.048,-0L0.269,-0L0.269,-0.565L0.048,-0.565L0.048,-0ZM0.048,-0.624L0.269,-0.624L0.269,-0.685L0.048,-0.685L0.048,-0.624Z" style="fill:rgb(234,219,194);fill-rule:nonzero;"/>
        </g>
        <g transform="matrix(1300.35,0,0,1300.35,2142.12,2520.14)">
            <path d="M0.048,-0L0.26,-0L0.26,-0.275L0.402,-0L0.654,-0L0.475,-0.302L0.643,-0.565L0.392,-0.565L0.26,-0.327L0.26,-0.7L0.048,-0.7L0.048,-0Z" style="fill:rgb(234,219,194);fill-rule:nonzero;"/>
        </g>
        <g transform="matrix(1300.35,0,0,1300.35,2982.15,2520.14)">
            <path d="M0.048,-0L0.269,-0L0.269,-0.565L0.048,-0.565L0.048,-0ZM0.048,-0.624L0.269,-0.624L0.269,-0.685L0.048,-0.685L0.048,-0.624Z" style="fill:rgb(234,219,194);fill-rule:nonzero;"/>
        </g>
    </g>
    <g transform="matrix(3.052,0,0,3.052,-10872.3,-1790.73)">
        <g transform="matrix(125.117,0,0,129.126,3834.44,679.223)">
            <path d="M0.149,-0L0.369,-0L0.481,-0.176L0.495,-0.176L0.607,-0L0.828,-0L0.972,-0.7L0.732,-0.7L0.656,-0.274L0.642,-0.274L0.495,-0.515L0.481,-0.515L0.334,-0.274L0.32,-0.274L0.244,-0.7L0.005,-0.7L0.149,-0Z" style="fill:rgb(235,219,194);fill-rule:nonzero;"/>
        </g>
        <g transform="matrix(125.117,0,0,129.126,3951.52,679.223)">
            <path d="M0.322,-0.406C0.371,-0.406 0.409,-0.384 0.419,-0.328L0.226,-0.328C0.236,-0.384 0.273,-0.406 0.322,-0.406ZM0.609,-0.205L0.406,-0.205C0.391,-0.179 0.365,-0.162 0.322,-0.162C0.27,-0.162 0.229,-0.188 0.224,-0.25L0.612,-0.25L0.612,-0.269C0.612,-0.466 0.512,-0.58 0.321,-0.58C0.126,-0.58 0.022,-0.446 0.022,-0.282C0.022,-0.118 0.122,0.015 0.327,0.015C0.515,0.015 0.595,-0.111 0.609,-0.205Z" style="fill:rgb(235,219,194);fill-rule:nonzero;"/>
        </g>
        <g transform="matrix(125.117,0,0,129.126,4030.84,679.223)">
            <path d="M0.048,-0L0.269,-0L0.269,-0.565L0.048,-0.565L0.048,-0ZM0.048,-0.624L0.269,-0.624L0.269,-0.685L0.048,-0.685L0.048,-0.624Z" style="fill:rgb(235,219,194);fill-rule:nonzero;"/>
        </g>
        <g transform="matrix(125.117,0,0,129.126,4070.5,679.223)">
            <path d="M0.436,-0.324L0.436,-0.58C0.348,-0.58 0.287,-0.533 0.257,-0.44L0.249,-0.44L0.249,-0.565L0.048,-0.565L0.048,-0L0.267,-0L0.267,-0.204C0.267,-0.287 0.313,-0.332 0.38,-0.332C0.405,-0.332 0.424,-0.328 0.436,-0.324Z" style="fill:rgb(235,219,194);fill-rule:nonzero;"/>
        </g>
        <g transform="matrix(125.117,0,0,129.126,4127.56,679.223)">
            <path d="M0.272,0.015C0.348,0.015 0.407,-0.018 0.432,-0.08L0.439,-0.08L0.439,-0L0.659,-0L0.659,-0.7L0.439,-0.7L0.439,-0.485L0.432,-0.485C0.407,-0.546 0.348,-0.58 0.272,-0.58C0.134,-0.58 0.022,-0.463 0.022,-0.282C0.022,-0.108 0.125,0.015 0.272,0.015ZM0.343,-0.181C0.288,-0.181 0.245,-0.216 0.245,-0.283C0.245,-0.349 0.288,-0.384 0.343,-0.384C0.397,-0.384 0.44,-0.349 0.44,-0.283C0.44,-0.216 0.397,-0.181 0.343,-0.181Z" style="fill:rgb(235,219,194);fill-rule:nonzero;"/>
        </g>
        <g transform="matrix(125.117,0,0,129.126,4248.54,679.223)">
            <path d="M0.257,0.015C0.449,0.015 0.54,-0.096 0.54,-0.275L0.54,-0.7L0.31,-0.7L0.31,-0.29C0.31,-0.232 0.284,-0.199 0.235,-0.199C0.19,-0.199 0.151,-0.226 0.128,-0.252L0.005,-0.087C0.043,-0.041 0.127,0.015 0.257,0.015Z" style="fill:rgb(235,219,194);fill-rule:nonzero;"/>
        </g>
        <g transform="matrix(125.117,0,0,129.126,4321.72,679.223)">
            <path d="M0.022,-0.282C0.022,-0.108 0.125,0.015 0.272,0.015C0.348,0.015 0.407,-0.018 0.432,-0.08L0.439,-0.08L0.439,-0L0.659,-0L0.659,-0.565L0.439,-0.565L0.439,-0.485L0.432,-0.485C0.407,-0.546 0.348,-0.58 0.272,-0.58C0.134,-0.58 0.022,-0.463 0.022,-0.282ZM0.343,-0.181C0.288,-0.181 0.245,-0.216 0.245,-0.283C0.245,-0.348 0.287,-0.384 0.343,-0.384C0.397,-0.384 0.44,-0.349 0.44,-0.283C0.44,-0.216 0.397,-0.181 0.343,-0.181Z" style="fill:rgb(235,219,194);fill-rule:nonzero;"/>
        </g>
        <g transform="matrix(125.117,0,0,129.126,4410.17,679.223)">
            <path d="M0.002,-0.565L0.172,-0L0.482,-0L0.652,-0.565L0.418,-0.565L0.333,-0.201L0.323,-0.201L0.238,-0.565L0.002,-0.565Z" style="fill:rgb(235,219,194);fill-rule:nonzero;"/>
        </g>
        <g transform="matrix(125.117,0,0,129.126,4489.42,679.223)">
            <path d="M0.022,-0.282C0.022,-0.108 0.125,0.015 0.272,0.015C0.348,0.015 0.407,-0.018 0.432,-0.08L0.439,-0.08L0.439,-0L0.659,-0L0.659,-0.565L0.439,-0.565L0.439,-0.485L0.432,-0.485C0.407,-0.546 0.348,-0.58 0.272,-0.58C0.134,-0.58 0.022,-0.463 0.022,-0.282ZM0.343,-0.181C0.288,-0.181 0.245,-0.216 0.245,-0.283C0.245,-0.348 0.287,-0.384 0.343,-0.384C0.397,-0.384 0.44,-0.349 0.44,-0.283C0.44,-0.216 0.397,-0.181 0.343,-0.181Z" style="fill:rgb(235,219,194);fill-rule:nonzero;"/>
        </g>
    </g>
</svg>
